name Walk8.mot
datacolumns 19
datarows 20
range 3.95500000 4.05000000
endheader

                time	   L_ground_force_vx	   L_ground_force_vy	   L_ground_force_vz	   L_ground_force_px	   L_ground_force_py	   L_ground_force_pz	   R_ground_force_vx	   R_ground_force_vy	   R_ground_force_vz	   R_ground_force_px	   R_ground_force_py	   R_ground_force_pz	   L_ground_torque_x	   L_ground_torque_y	   L_ground_torque_z	   R_ground_torque_x	   R_ground_torque_y	   R_ground_torque_z	
          3.95500000	          0.00000000	          0.00000000	          0.00000000	          0.00000000	          0.00000000	         -0.00000000	         16.33572052	         51.44149928	          2.79667897	          0.37295024	          0.00000000	          0.09100697	          0.00000000	          0.00000000	          0.00000000	          0.00000000	         -3.06747400	          0.00000000	
          3.96000000	          0.00000000	          0.00000000	          0.00000000	          0.00000000	          0.00000000	         -0.00000000	         11.44619580	         33.98108430	          2.92801611	          0.31970366	          0.00000000	          0.07827035	          0.00000000	          0.00000000	          0.00000000	          0.00000000	         -2.13050836	          0.00000000	
          3.96500000	          0.00000000	          0.00000000	         -0.00000000	          0.00000000	          0.00000000	         -0.00000000	          7.41251267	         20.16054154	          2.78782948	          0.26193559	          0.00000000	          0.06435275	          0.00000000	          0.00000000	          0.00000000	          0.00000000	         -1.36208587	          0.00000000	
          3.97000000	          0.00000000	          0.00000000	         -0.00000000	         -0.00000000	          0.00000000	          0.00000000	          4.23985829	          9.70658586	          2.47783047	          0.20428400	          0.00000000	          0.05036762	          0.00000000	          0.00000000	          0.00000000	          0.00000000	         -0.76161872	          0.00000000	
          3.97500000	          0.00000000	          0.00000000	         -0.00000000	         -0.00000000	          0.00000000	          0.00000000	          1.86997498	          2.23499302	          2.08306767	          0.15115677	          0.00000000	          0.03741576	          0.00000000	          0.00000000	          0.00000000	          0.00000000	         -0.31631594	          0.00000000	
          3.98000000	          0.00000000	          0.00000000	         -0.00000000	         -0.00000000	          0.00000000	          0.00000000	          0.20232230	         -2.73315566	          1.66516848	          0.10513262	          0.00000000	          0.02615084	          0.00000000	          0.00000000	          0.00000000	          0.00000000	         -0.00573513	          0.00000000	
          3.98500000	          0.00000000	          0.00000000	         -0.00000000	         -0.00000000	          0.00000000	          0.00000000	         -0.88311230	         -5.70297359	          1.26548313	          0.06730351	          0.00000000	          0.01685866	          0.00000000	          0.00000000	          0.00000000	          0.00000000	          0.19388791	          0.00000000	
          3.99000000	          0.00000000	          0.00000000	         -0.00000000	         -0.00000000	          0.00000000	          0.00000000	         -1.50933698	         -7.15642405	          0.90908824	          0.03772154	          0.00000000	          0.00956644	          0.00000000	          0.00000000	          0.00000000	          0.00000000	          0.30656811	          0.00000000	
          3.99500000	          0.00000000	          0.00000000	         -0.00000000	         -0.00000000	          0.00000000	          0.00000000	         -1.79155242	         -7.52250706	          0.60864121	          0.01576788	          0.00000000	          0.00413350	          0.00000000	         -0.00000000	          0.00000000	          0.00000000	          0.35458191	          0.00000000	
          4.00000000	          0.00000000	          0.00000000	         -0.00000000	         -0.00000000	          0.00000000	          0.00000000	         -1.83084159	         -7.16232965	          0.36783420	          0.00044238	          0.00000000	          0.00032254	          0.00000000	         -0.00000000	          0.00000000	          0.00000000	          0.35732908	          0.00000000	
          4.00500000	          0.00000000	          0.00000000	         -0.00000000	         -0.00000000	          0.00000000	          0.00000000	         -1.71123954	         -6.36490118	          0.18431808	         -0.00942056	          0.00000000	         -0.00214686	          0.00000000	         -0.00000000	          0.00000000	          0.00000000	          0.33083038	          0.00000000	
          4.01000000	          0.00000000	          0.00000000	         -0.00000000	         -0.00000000	          0.00000000	          0.00000000	         -1.49920270	         -5.35013903	          0.05205542	         -0.01500042	          0.00000000	         -0.00356064	          0.00000000	         -0.00000000	          0.00000000	          0.00000000	          0.28767260	          0.00000000	
          4.01500000	          0.00000000	          0.00000000	         -0.00000000	         -0.00000000	          0.00000000	          0.00000000	         -1.24465878	         -4.27626041	         -0.03687901	         -0.01739232	          0.00000000	         -0.00418567	          0.00000000	         -0.00000000	          0.00000000	          0.00000000	          0.23724492	          0.00000000	
          4.02000000	         -0.00000000	         -0.00000000	         -0.00000000	         -0.00000000	          0.00000000	          0.00000000	         -0.98298724	         -3.24940236	         -0.09099426	         -0.01755068	          0.00000000	         -0.00425546	          0.00000000	         -0.00000000	          0.00000000	          0.00000000	          0.18614343	          0.00000000	
          4.02500000	         -0.00000000	         -0.00000000	         -0.00000000	         -0.00000000	          0.00000000	          0.00000000	         -0.73743994	         -2.33390975	         -0.11850077	         -0.01626419	          0.00000000	         -0.00396365	          0.00000000	         -0.00000000	          0.00000000	          0.00000000	          0.13865133	          0.00000000	
          4.03000000	         -0.00000000	         -0.00000000	         -0.00000000	         -0.00000000	          0.00000000	          0.00000000	         -0.52165263	         -1.56223803	         -0.12676819	         -0.01415288	          0.00000000	         -0.00346305	          0.00000000	         -0.00000000	          0.00000000	          0.00000000	          0.09722993	          0.00000000	
          4.03500000	         -0.00000000	         -0.00000000	          0.00000000	         -0.00000000	          0.00000000	          0.00000000	         -0.34201599	         -0.94382577	         -0.12204409	         -0.01167962	          0.00000000	         -0.00286813	          0.00000000	         -0.00000000	          0.00000000	          0.00000000	          0.06297747	          0.00000000	
          4.04000000	         -0.00000000	         -0.00000000	          0.00000000	          0.00000000	          0.00000000	         -0.00000000	         -0.19976917	         -0.47260476	         -0.10936241	         -0.00916985	          0.00000000	         -0.00225979	          0.00000000	         -0.00000000	          0.00000000	          0.00000000	          0.03603128	          0.00000000	
          4.04500000	         -0.00000000	         -0.00000000	          0.00000000	          0.00000000	          0.00000000	         -0.00000000	         -0.09274971	         -0.13304253	         -0.09258065	         -0.00683516	          0.00000000	         -0.00169095	          0.00000000	         -0.00000000	          0.00000000	          0.00000000	          0.01590157	          0.00000000	
          4.05000000	         -0.00000000	         -0.00000000	          0.00000000	          0.00000000	          0.00000000	         -0.00000000	         -0.01678482	          0.09523420	         -0.07449682	         -0.00479739	          0.00000000	         -0.00119243	          0.00000000	         -0.00000000	          0.00000000	          0.00000000	          0.00173515	          0.00000000	
